# xmcd
#
# Track frame offsets:
#	150
#	11230
#	23872
#	36005
#	47307
#	60345
#	71570
#	84660
#	96102
#	108405
#
# Disc length: 1598
#
# Revision: 1
# Processed by: cddbd v1.5.1PL0 Copyright (c) Steve Scherf et al.
# Submitted via: FreeRIP 2.92 
# Normalized: r0:TDELIM( - )
#
DISCID=75063c0a
DTITLE=I walk the line - 50's Country western
DYEAR=1900
DGENRE=
TTITLE0=Don Gibson - Oh, Lonesome Me
TTITLE1=Sanford Clark - The Fool
TTITLE2=Hank Thompson - The Wild Side of Life
TTITLE3=Kitty Wells - It wasn't God Who Made Honky Tonk Angels
TTITLE4=Pee Wee King - Slow Poke
TTITLE5=Faron Young - Country Girl
TTITLE6=Bobby Helms - My Special Angel
TTITLE7=Carl Smith - Loose Talk
TTITLE8=Porter Wagoner - A Satisfied Mind
TTITLE9=Wilma Lee and Stoney Cooper - Big Midnight Special
EXTD=disk 2 of a 2 disk set
EXTT0=
EXTT1=
EXTT2=
EXTT3=
EXTT4=
EXTT5=
EXTT6=
EXTT7=
EXTT8=
EXTT9=
PLAYORDER=
